<mxfile host="app.diagrams.net" modified="2023-09-14T08:28:23.400Z" agent="Mozilla/5.0 (Windows NT 10.0; Win64; x64) AppleWebKit/537.36 (KHTML, like Gecko) Chrome/114.0.0.0 YaBrowser/23.7.5.704 Yowser/2.5 Safari/537.36" etag="GO0wCMKzO2yaRdPoIPOb" version="21.7.4" type="github">
  <diagram name="Страница — 1" id="2bJAxVThDf8CBTxTY82q">
    <mxGraphModel dx="1386" dy="759" grid="1" gridSize="10" guides="1" tooltips="1" connect="1" arrows="1" fold="1" page="1" pageScale="1" pageWidth="827" pageHeight="1169" math="0" shadow="0">
      <root>
        <mxCell id="0" />
        <mxCell id="1" parent="0" />
        <mxCell id="T4EAJsj8Sp6kyoZITAQN-5" style="edgeStyle=orthogonalEdgeStyle;rounded=0;orthogonalLoop=1;jettySize=auto;html=1;exitX=0.5;exitY=1;exitDx=0;exitDy=0;entryX=0.5;entryY=0;entryDx=0;entryDy=0;" edge="1" parent="1" source="T4EAJsj8Sp6kyoZITAQN-1" target="T4EAJsj8Sp6kyoZITAQN-2">
          <mxGeometry relative="1" as="geometry" />
        </mxCell>
        <mxCell id="T4EAJsj8Sp6kyoZITAQN-1" value="Start" style="ellipse;whiteSpace=wrap;html=1;" vertex="1" parent="1">
          <mxGeometry x="340" y="40" width="120" height="80" as="geometry" />
        </mxCell>
        <mxCell id="T4EAJsj8Sp6kyoZITAQN-6" style="edgeStyle=orthogonalEdgeStyle;rounded=0;orthogonalLoop=1;jettySize=auto;html=1;exitX=0.5;exitY=1;exitDx=0;exitDy=0;entryX=0.5;entryY=0;entryDx=0;entryDy=0;" edge="1" parent="1" source="T4EAJsj8Sp6kyoZITAQN-2" target="T4EAJsj8Sp6kyoZITAQN-3">
          <mxGeometry relative="1" as="geometry" />
        </mxCell>
        <mxCell id="T4EAJsj8Sp6kyoZITAQN-2" value="massive = []&lt;br&gt;index = 0&lt;br&gt;size = massive.lenght&lt;br&gt;summ&lt;br&gt;result" style="shape=parallelogram;perimeter=parallelogramPerimeter;whiteSpace=wrap;html=1;fixedSize=1;" vertex="1" parent="1">
          <mxGeometry x="320" y="160" width="160" height="80" as="geometry" />
        </mxCell>
        <mxCell id="T4EAJsj8Sp6kyoZITAQN-7" style="edgeStyle=orthogonalEdgeStyle;rounded=0;orthogonalLoop=1;jettySize=auto;html=1;exitX=0.5;exitY=1;exitDx=0;exitDy=0;entryX=0.5;entryY=0;entryDx=0;entryDy=0;" edge="1" parent="1" source="T4EAJsj8Sp6kyoZITAQN-3" target="T4EAJsj8Sp6kyoZITAQN-4">
          <mxGeometry relative="1" as="geometry" />
        </mxCell>
        <mxCell id="T4EAJsj8Sp6kyoZITAQN-8" value="Yes" style="edgeLabel;html=1;align=center;verticalAlign=middle;resizable=0;points=[];" vertex="1" connectable="0" parent="T4EAJsj8Sp6kyoZITAQN-7">
          <mxGeometry x="-0.2" y="-1" relative="1" as="geometry">
            <mxPoint as="offset" />
          </mxGeometry>
        </mxCell>
        <mxCell id="T4EAJsj8Sp6kyoZITAQN-11" style="edgeStyle=orthogonalEdgeStyle;rounded=0;orthogonalLoop=1;jettySize=auto;html=1;exitX=1;exitY=0.5;exitDx=0;exitDy=0;entryX=0;entryY=0.5;entryDx=0;entryDy=0;" edge="1" parent="1" source="T4EAJsj8Sp6kyoZITAQN-3" target="T4EAJsj8Sp6kyoZITAQN-10">
          <mxGeometry relative="1" as="geometry" />
        </mxCell>
        <mxCell id="T4EAJsj8Sp6kyoZITAQN-12" value="No" style="edgeLabel;html=1;align=center;verticalAlign=middle;resizable=0;points=[];" vertex="1" connectable="0" parent="T4EAJsj8Sp6kyoZITAQN-11">
          <mxGeometry x="-0.26" y="3" relative="1" as="geometry">
            <mxPoint as="offset" />
          </mxGeometry>
        </mxCell>
        <mxCell id="T4EAJsj8Sp6kyoZITAQN-3" value="index &amp;lt; size" style="rhombus;whiteSpace=wrap;html=1;" vertex="1" parent="1">
          <mxGeometry x="340" y="280" width="120" height="110" as="geometry" />
        </mxCell>
        <mxCell id="T4EAJsj8Sp6kyoZITAQN-9" style="edgeStyle=orthogonalEdgeStyle;rounded=0;orthogonalLoop=1;jettySize=auto;html=1;exitX=0.5;exitY=1;exitDx=0;exitDy=0;entryX=0;entryY=0.5;entryDx=0;entryDy=0;" edge="1" parent="1" source="T4EAJsj8Sp6kyoZITAQN-4" target="T4EAJsj8Sp6kyoZITAQN-3">
          <mxGeometry relative="1" as="geometry">
            <Array as="points">
              <mxPoint x="400" y="510" />
              <mxPoint x="270" y="510" />
              <mxPoint x="270" y="335" />
            </Array>
          </mxGeometry>
        </mxCell>
        <mxCell id="T4EAJsj8Sp6kyoZITAQN-4" value="summ = summ + massive[index]&lt;br&gt;index++" style="rounded=0;whiteSpace=wrap;html=1;" vertex="1" parent="1">
          <mxGeometry x="300" y="430" width="200" height="60" as="geometry" />
        </mxCell>
        <mxCell id="T4EAJsj8Sp6kyoZITAQN-14" style="edgeStyle=orthogonalEdgeStyle;rounded=0;orthogonalLoop=1;jettySize=auto;html=1;exitX=0.5;exitY=1;exitDx=0;exitDy=0;" edge="1" parent="1" source="T4EAJsj8Sp6kyoZITAQN-10" target="T4EAJsj8Sp6kyoZITAQN-13">
          <mxGeometry relative="1" as="geometry" />
        </mxCell>
        <mxCell id="T4EAJsj8Sp6kyoZITAQN-10" value="result = summ / size" style="rounded=0;whiteSpace=wrap;html=1;" vertex="1" parent="1">
          <mxGeometry x="560" y="305" width="120" height="60" as="geometry" />
        </mxCell>
        <mxCell id="T4EAJsj8Sp6kyoZITAQN-16" value="" style="edgeStyle=orthogonalEdgeStyle;rounded=0;orthogonalLoop=1;jettySize=auto;html=1;" edge="1" parent="1" source="T4EAJsj8Sp6kyoZITAQN-13" target="T4EAJsj8Sp6kyoZITAQN-15">
          <mxGeometry relative="1" as="geometry" />
        </mxCell>
        <mxCell id="T4EAJsj8Sp6kyoZITAQN-13" value="print(result)" style="shape=document;whiteSpace=wrap;html=1;boundedLbl=1;" vertex="1" parent="1">
          <mxGeometry x="560" y="400" width="120" height="80" as="geometry" />
        </mxCell>
        <mxCell id="T4EAJsj8Sp6kyoZITAQN-15" value="End" style="ellipse;whiteSpace=wrap;html=1;" vertex="1" parent="1">
          <mxGeometry x="560" y="520" width="120" height="80" as="geometry" />
        </mxCell>
      </root>
    </mxGraphModel>
  </diagram>
</mxfile>
